<svg xmlns="http://www.w3.org/2000/svg" width="48" height="48"><path d="M16 39c-2.89 0-5-1-5-1s-.11-3.23 1-5c-2.398 1.61-4 4-4 4l-4-7s2.91-5.715 7-7c-3.02-2.344-5-3-5-3s3.727-8.543 11-13c3.93 2.266 5 7 5 7l-1-8h6l-1 8s.75-3.855 3-6c2.254.953 4 3 4 3s-3.563 4.348-4 6c2.254-2.855 6-5 6-5s5.14 4.527 6 9c-3.11 1.156-5 2-5 2s3.516-1.031 6 0c.582 2.035 0 4 0 4h-5s4.79 1.016 7 4c-1.668 3.297-5 5-5 5s-1.508-2.422-3-3c1.012 1.797 1 4 1 4s-1.816 2-5 2zm0 0" fill="#cfd8dc"/><path d="M34 36c.047-2.68-3.176-9.023-3-15 0 0-3.125-2.66-7-2l-7 2c.176 5.977-3.047 12.32-3 15 .04 2.332 2.805 4.395 7.688 4.887A2.966 2.966 0 0 0 24 42c.938 0 1.766-.438 2.313-1.113C31.194 40.395 33.96 38.332 34 36zm0 0" fill="#ffa726"/><path d="M16.242 27.125A2.443 2.443 0 0 0 15.5 27a2.497 2.497 0 0 0-2.5 2.5c0 1.172.809 2.148 1.895 2.418.433-1.434.937-3.066 1.347-4.793zm0 0M32.5 27c-.262 0-.508.05-.742.125.41 1.727.918 3.36 1.347 4.793A2.493 2.493 0 0 0 35 29.5c0-1.383-1.117-2.5-2.5-2.5zm0 0" fill="#ed931b"/><path d="M24.434 20.957c.27-.043.543-.062.82-.062.875 0 1.691.207 2.379.472.808.313 1.336 1.059 1.52 1.906.523 2.387 2.234 4.344 3.261 6.336-.762-2.64-1.5-5.668-1.414-8.609 0 0-2.473-2.105-5.746-2.105-.406 0-.824.03-1.254.105l-7 2c.086 2.965-.66 6.02-1.434 8.672.985-1.856 2.621-3.652 3.207-5.86.223-.843.895-1.496 1.73-1.734zm0 0M28 36.5c0-.828-1.79-1.5-4-1.5s-4 .672-4 1.5 1.79 1.5 4 1.5 4-.672 4-1.5zm0 0" fill="#ed931b"/><path d="M18 37h12s-.363-5-6-5c-5.637 0-6 5-6 5zm0 0" fill="#cfd8dc"/><path d="M27 31a3 3 0 1 1-6.002-.002A3 3 0 0 1 27 31zm0 0" fill="#ffa726"/><path d="M20 29c0-.55.45-1 1-1s1 .45 1 1-.45 1-1 1-1-.45-1-1m6 0c0 .55.45 1 1 1s1-.45 1-1-.45-1-1-1-1 .45-1 1" fill="#784719"/><path d="M10.266 13.148a31.887 31.887 0 0 1 1.808-2.085C13.82 12.842 17.176 16.483 18 19c-.996-1.934-6.48-5.137-7.734-5.852zM35 12s-3.746 2.145-6 5c0 0 3.922-2.55 7.973-2.996A26.347 26.347 0 0 0 35 12zm-4.145-2.926A9.648 9.648 0 0 0 29 8c-2.625 2.5-4 9-4 9s2.438-4.938 5.855-7.926zm12 23.688A9.908 9.908 0 0 0 44 31c-2.21-2.984-7-4-7-4s3.816 2.332 5.855 5.762zM23 6h-2s1.375 8.656 1 11c1-4.156 1-11 1-11zM11 23c-4.09 1.285-7 7-7 7l1.242 2.176C5.81 30.43 7.457 26.223 11 23zm0 0" fill="#b0bec5"/></svg>